<svg xmlns="http://www.w3.org/2000/svg" viewBox="0 0 64 64" fill="none">
  <defs>
    <linearGradient id="bg" x1="8" y1="8" x2="56" y2="56" gradientUnits="userSpaceOnUse">
      <stop offset="0" stop-color="#6366f1" />
      <stop offset="1" stop-color="#8b5cf6" />
    </linearGradient>
  </defs>
  <rect x="8" y="8" width="48" height="48" rx="12" fill="url(#bg)" />
  <path
    d="M20 24.5a3.5 3.5 0 0 1 3.5-3.5h19a3.5 3.5 0 0 1 3.5 3.5V26h-5.5a6.5 6.5 0 0 0 0 13H46v1.5a3.5 3.5 0 0 1-3.5 3.5h-19a3.5 3.5 0 0 1-3.5-3.5v-16Z"
    stroke="#fff"
    stroke-width="3"
    stroke-linejoin="round"
  />
  <path
    d="M40.5 29h9a1.5 1.5 0 0 1 1.5 1.5v4a1.5 1.5 0 0 1-1.5 1.5h-9a3.5 3.5 0 1 1 0-7Z"
    stroke="#fff"
    stroke-width="3"
    stroke-linejoin="round"
  />
  <circle cx="40.5" cy="32.5" r="1.2" fill="#fff" />
</svg>
